<?xml version="1.0" encoding="UTF-8" standalone="no"?>
<!DOCTYPE svg PUBLIC "-//W3C//DTD SVG 1.1//EN" "http://www.w3.org/Graphics/SVG/1.1/DTD/svg11.dtd">
<svg width="100%" height="100%" viewBox="0 0 5405 2563" version="1.1" xmlns="http://www.w3.org/2000/svg" xmlns:xlink="http://www.w3.org/1999/xlink" xml:space="preserve" xmlns:serif="http://www.serif.com/" style="fill-rule:evenodd;clip-rule:evenodd;stroke-linejoin:round;stroke-miterlimit:2;">
    <g id="Calque1">
    </g>
    <g>
        <g transform="matrix(5.87169,0,0,5.87169,90.2384,-609.728)">
            <g transform="matrix(204.371,0,0,204.371,60,360)">
                <path d="M0.192,-0C0.167,-0 0.144,-0.006 0.122,-0.019C0.101,-0.031 0.084,-0.048 0.072,-0.069C0.059,-0.091 0.053,-0.114 0.053,-0.139L0.053,-0.194L0.185,-0.194L0.185,-0.145C0.185,-0.141 0.186,-0.139 0.189,-0.136C0.191,-0.134 0.194,-0.133 0.197,-0.133L0.628,-0.133C0.631,-0.133 0.634,-0.134 0.636,-0.136C0.638,-0.139 0.64,-0.142 0.64,-0.145L0.64,-0.282C0.64,-0.285 0.638,-0.288 0.636,-0.29C0.634,-0.292 0.631,-0.293 0.628,-0.293L0.192,-0.293C0.167,-0.293 0.144,-0.3 0.122,-0.312C0.101,-0.325 0.084,-0.342 0.072,-0.363C0.059,-0.384 0.053,-0.407 0.053,-0.433L0.053,-0.581C0.053,-0.606 0.059,-0.629 0.072,-0.651C0.084,-0.672 0.101,-0.689 0.122,-0.701C0.144,-0.714 0.167,-0.72 0.192,-0.72L0.634,-0.72C0.659,-0.72 0.682,-0.714 0.703,-0.701C0.724,-0.689 0.741,-0.672 0.754,-0.651C0.767,-0.629 0.773,-0.606 0.773,-0.581L0.773,-0.526L0.64,-0.526L0.64,-0.575C0.64,-0.579 0.638,-0.581 0.636,-0.584C0.634,-0.586 0.631,-0.587 0.628,-0.587L0.197,-0.587C0.194,-0.587 0.191,-0.586 0.189,-0.584C0.186,-0.581 0.185,-0.579 0.185,-0.575L0.185,-0.438C0.185,-0.435 0.186,-0.432 0.189,-0.43C0.191,-0.428 0.194,-0.427 0.197,-0.427L0.634,-0.427C0.659,-0.427 0.682,-0.42 0.703,-0.408C0.724,-0.395 0.741,-0.378 0.754,-0.357C0.767,-0.336 0.773,-0.313 0.773,-0.287L0.773,-0.139C0.773,-0.114 0.767,-0.091 0.754,-0.069C0.741,-0.048 0.724,-0.031 0.703,-0.019C0.682,-0.006 0.659,0 0.634,0L0.192,0Z" style="fill:url(#_Linear1);fill-rule:nonzero;"/>
            </g>
            <g transform="matrix(204.371,0,0,204.371,228.81,360)">
                <path d="M0.052,-0L0.052,-0.58L0.183,-0.58L0.183,0L0.052,0ZM0.052,-0.638L0.052,-0.77L0.183,-0.77L0.183,-0.638L0.052,-0.638Z" style="fill:url(#_Linear2);fill-rule:nonzero;"/>
            </g>
            <g transform="matrix(204.371,0,0,204.371,278.472,360)">
                <path d="M0.19,-0C0.165,-0 0.142,-0.006 0.121,-0.019C0.1,-0.032 0.084,-0.048 0.071,-0.069C0.058,-0.09 0.052,-0.113 0.052,-0.138L0.052,-0.771L0.184,-0.771L0.184,-0.143C0.184,-0.14 0.185,-0.137 0.187,-0.134C0.19,-0.132 0.192,-0.131 0.196,-0.131L0.307,-0.131L0.307,0L0.19,0Z" style="fill:rgb(162,160,160);fill-rule:nonzero;"/>
            </g>
            <g transform="matrix(204.371,0,0,204.371,345.914,360)">
                <path d="M0.19,-0C0.164,-0 0.141,-0.006 0.121,-0.019C0.1,-0.032 0.083,-0.048 0.071,-0.069C0.058,-0.09 0.052,-0.113 0.052,-0.138L0.052,-0.356L0.51,-0.356L0.51,-0.437C0.51,-0.44 0.508,-0.443 0.506,-0.445C0.504,-0.448 0.501,-0.449 0.498,-0.449L0.052,-0.449L0.052,-0.58L0.503,-0.58C0.529,-0.58 0.552,-0.574 0.573,-0.561C0.593,-0.549 0.61,-0.532 0.622,-0.511C0.635,-0.49 0.641,-0.467 0.641,-0.442L0.641,0L0.19,0ZM0.195,-0.131L0.51,-0.131L0.51,-0.238L0.183,-0.238L0.183,-0.143C0.183,-0.14 0.184,-0.137 0.187,-0.135C0.189,-0.132 0.192,-0.131 0.195,-0.131Z" style="fill:rgb(162,160,160);fill-rule:nonzero;"/>
            </g>
            <g transform="matrix(204.371,0,0,204.371,487.748,360)">
                <path d="M0.161,-0C0.135,-0 0.112,-0.006 0.091,-0.019C0.071,-0.031 0.054,-0.048 0.042,-0.069C0.029,-0.09 0.023,-0.113 0.023,-0.138L0.023,-0.442C0.023,-0.467 0.029,-0.49 0.042,-0.511C0.054,-0.532 0.071,-0.548 0.091,-0.561C0.112,-0.574 0.135,-0.58 0.161,-0.58L0.482,-0.58L0.482,-0.77L0.613,-0.77L0.613,0L0.161,0ZM0.167,-0.131L0.47,-0.131C0.473,-0.131 0.476,-0.132 0.478,-0.135C0.48,-0.137 0.482,-0.14 0.482,-0.143L0.482,-0.437C0.482,-0.44 0.48,-0.443 0.478,-0.445C0.476,-0.448 0.473,-0.449 0.47,-0.449L0.167,-0.449C0.164,-0.449 0.161,-0.448 0.159,-0.445C0.156,-0.443 0.155,-0.44 0.155,-0.437L0.155,-0.143C0.155,-0.14 0.156,-0.137 0.159,-0.134C0.161,-0.132 0.164,-0.131 0.167,-0.131Z" style="fill:rgb(162,160,160);fill-rule:nonzero;"/>
            </g>
            <g transform="matrix(204.371,0,0,204.371,619.567,360)">
                <path d="M0.189,-0C0.164,-0 0.141,-0.006 0.12,-0.019C0.099,-0.032 0.083,-0.048 0.07,-0.069C0.057,-0.09 0.051,-0.113 0.051,-0.138L0.051,-0.442C0.051,-0.467 0.057,-0.49 0.07,-0.511C0.083,-0.532 0.099,-0.548 0.12,-0.561C0.141,-0.574 0.164,-0.58 0.189,-0.58L0.502,-0.58C0.528,-0.58 0.551,-0.574 0.572,-0.561C0.592,-0.549 0.609,-0.532 0.621,-0.511C0.634,-0.49 0.64,-0.467 0.64,-0.442L0.64,-0.224L0.182,-0.224L0.182,-0.143C0.182,-0.14 0.183,-0.137 0.185,-0.134C0.188,-0.132 0.191,-0.131 0.194,-0.131L0.64,-0.131L0.64,0L0.189,0ZM0.182,-0.342L0.509,-0.342L0.509,-0.437C0.509,-0.44 0.507,-0.443 0.505,-0.445C0.503,-0.448 0.5,-0.449 0.497,-0.449L0.194,-0.449C0.191,-0.449 0.188,-0.448 0.185,-0.445C0.183,-0.443 0.182,-0.44 0.182,-0.437L0.182,-0.342Z" style="fill:rgb(162,160,160);fill-rule:nonzero;"/>
            </g>
            <g transform="matrix(204.371,0,0,204.371,756.086,360)">
                <path d="M0.19,-0C0.165,-0 0.142,-0.006 0.121,-0.019C0.1,-0.032 0.084,-0.048 0.071,-0.069C0.058,-0.09 0.052,-0.113 0.052,-0.138L0.052,-0.771L0.184,-0.771L0.184,-0.143C0.184,-0.14 0.185,-0.137 0.187,-0.134C0.19,-0.132 0.192,-0.131 0.196,-0.131L0.307,-0.131L0.307,0L0.19,0Z" style="fill:rgb(162,160,160);fill-rule:nonzero;"/>
            </g>
        </g>
        <path d="M607.66,2012.12L632.481,2009.95C633.656,2019.9 636.391,2028.06 640.686,2034.43C644.982,2040.81 651.65,2045.96 660.692,2049.89C669.735,2053.83 679.907,2055.79 691.21,2055.79C701.247,2055.79 710.108,2054.3 717.794,2051.32C725.48,2048.33 731.199,2044.24 734.952,2039.04C738.704,2033.84 740.581,2028.17 740.581,2022.02C740.581,2015.78 738.772,2010.33 735.155,2005.68C731.538,2001.02 725.571,1997.11 717.252,1993.94C711.917,1991.87 700.117,1988.63 681.851,1984.25C663.586,1979.86 650.791,1975.73 643.467,1971.84C633.973,1966.86 626.897,1960.69 622.24,1953.32C617.584,1945.95 615.255,1937.7 615.255,1928.57C615.255,1918.53 618.103,1909.15 623.8,1900.43C629.497,1891.7 637.816,1885.08 648.757,1880.56C659.698,1876.03 671.86,1873.77 685.242,1873.77C699.981,1873.77 712.979,1876.15 724.237,1880.89C735.494,1885.64 744.152,1892.63 750.211,1901.85C756.269,1911.07 759.524,1921.52 759.976,1933.18L734.748,1935.08C733.392,1922.51 728.803,1913.02 720.982,1906.6C713.16,1900.18 701.609,1896.97 686.327,1896.97C670.413,1896.97 658.816,1899.88 651.537,1905.72C644.258,1911.55 640.619,1918.58 640.619,1926.81C640.619,1933.95 643.196,1939.83 648.35,1944.44C653.413,1949.05 666.638,1953.78 688.023,1958.61C709.408,1963.45 724.079,1967.68 732.036,1971.3C743.61,1976.63 752.155,1983.39 757.671,1991.57C763.186,1999.76 765.944,2009.18 765.944,2019.85C765.944,2030.43 762.915,2040.4 756.857,2049.76C750.798,2059.12 742.095,2066.4 730.747,2071.6C719.399,2076.8 706.627,2079.39 692.431,2079.39C674.437,2079.39 659.359,2076.77 647.197,2071.53C635.035,2066.28 625.495,2058.39 618.578,2047.86C611.661,2037.33 608.021,2025.41 607.66,2012.12Z" style="fill:rgb(167,164,164);fill-rule:nonzero;"/>
        <path d="M793.885,1979.16C793.885,1946.16 802.746,1920.32 820.469,1901.65C838.192,1882.97 861.069,1873.64 889.1,1873.64C907.455,1873.64 924.003,1878.02 938.741,1886.79C953.48,1895.57 964.715,1907.79 972.446,1923.48C980.178,1939.17 984.043,1956.96 984.043,1976.86C984.043,1997.02 979.974,2015.06 971.836,2030.97C963.698,2046.89 952.169,2058.93 937.249,2067.12C922.33,2075.3 906.235,2079.39 888.964,2079.39C870.246,2079.39 853.518,2074.87 838.779,2065.83C824.041,2056.79 812.873,2044.44 805.278,2028.8C797.682,2013.16 793.885,1996.61 793.885,1979.16ZM821.011,1979.57C821.011,2003.53 827.454,2022.4 840.339,2036.19C853.224,2049.98 869.387,2056.88 888.828,2056.88C908.631,2056.88 924.929,2049.92 937.724,2035.99C950.519,2022.07 956.916,2002.31 956.916,1976.72C956.916,1960.53 954.181,1946.4 948.711,1934.33C943.24,1922.26 935.238,1912.9 924.703,1906.26C914.169,1899.61 902.346,1896.29 889.235,1896.29C870.608,1896.29 854.581,1902.68 841.153,1915.48C827.725,1928.28 821.011,1949.64 821.011,1979.57Z" style="fill:rgb(167,164,164);fill-rule:nonzero;"/>
        <path d="M1016.87,2076.01L1016.87,1877.17L1043.18,1877.17L1043.18,2052.55L1141.11,2052.55L1141.11,2076.01L1016.87,2076.01Z" style="fill:rgb(167,164,164);fill-rule:nonzero;"/>
        <path d="M1302.92,1877.17L1329.23,1877.17L1329.23,1992.05C1329.23,2012.04 1326.97,2027.9 1322.45,2039.66C1317.93,2051.41 1309.77,2060.98 1297.97,2068.35C1286.17,2075.72 1270.68,2079.4 1251.52,2079.4C1232.89,2079.4 1217.65,2076.19 1205.81,2069.77C1193.96,2063.35 1185.51,2054.06 1180.44,2041.9C1175.38,2029.74 1172.85,2013.12 1172.85,1992.05L1172.85,1877.17L1199.16,1877.17L1199.16,1991.92C1199.16,2009.19 1200.77,2021.91 1203.98,2030.1C1207.18,2038.28 1212.7,2044.59 1220.52,2049.02C1228.34,2053.45 1237.91,2055.66 1249.21,2055.66C1268.56,2055.66 1282.35,2051.28 1290.58,2042.51C1298.81,2033.74 1302.92,2016.87 1302.92,1991.92L1302.92,1877.17Z" style="fill:rgb(167,164,164);fill-rule:nonzero;"/>
        <path d="M1423.63,2076.01L1423.63,1900.63L1358.12,1900.63L1358.12,1877.17L1515.73,1877.17L1515.73,1900.63L1449.94,1900.63L1449.94,2076.01L1423.63,2076.01Z" style="fill:rgb(167,164,164);fill-rule:nonzero;"/>
        <rect x="1547.19" y="1877.17" width="26.313" height="198.839" style="fill:rgb(167,164,164);"/>
        <path d="M1611.89,1979.16C1611.89,1946.16 1620.75,1920.32 1638.48,1901.65C1656.2,1882.97 1679.07,1873.64 1707.11,1873.64C1725.46,1873.64 1742.01,1878.02 1756.75,1886.79C1771.49,1895.57 1782.72,1907.79 1790.45,1923.48C1798.18,1939.17 1802.05,1956.96 1802.05,1976.86C1802.05,1997.02 1797.98,2015.06 1789.84,2030.97C1781.7,2046.89 1770.17,2058.93 1755.26,2067.12C1740.34,2075.3 1724.24,2079.39 1706.97,2079.39C1688.25,2079.39 1671.52,2074.87 1656.79,2065.83C1642.05,2056.79 1630.88,2044.44 1623.28,2028.8C1615.69,2013.16 1611.89,1996.61 1611.89,1979.16ZM1639.02,1979.57C1639.02,2003.53 1645.46,2022.4 1658.35,2036.19C1671.23,2049.98 1687.39,2056.88 1706.83,2056.88C1726.64,2056.88 1742.93,2049.92 1755.73,2035.99C1768.53,2022.07 1774.92,2002.31 1774.92,1976.72C1774.92,1960.53 1772.19,1946.4 1766.72,1934.33C1761.25,1922.26 1753.24,1912.9 1742.71,1906.26C1732.17,1899.61 1720.35,1896.29 1707.24,1896.29C1688.61,1896.29 1672.59,1902.68 1659.16,1915.48C1645.73,1928.28 1639.02,1949.64 1639.02,1979.57Z" style="fill:rgb(167,164,164);fill-rule:nonzero;"/>
        <path d="M1835.69,2076.01L1835.69,1877.17L1862.68,1877.17L1967.12,2033.29L1967.12,1877.17L1992.35,1877.17L1992.35,2076.01L1965.36,2076.01L1860.92,1919.76L1860.92,2076.01L1835.69,2076.01Z" style="fill:rgb(167,164,164);fill-rule:nonzero;"/>
        <path d="M2027.61,2012.12L2052.43,2009.95C2053.61,2019.9 2056.34,2028.06 2060.64,2034.43C2064.93,2040.81 2071.6,2045.96 2080.64,2049.89C2089.68,2053.83 2099.86,2055.79 2111.16,2055.79C2121.2,2055.79 2130.06,2054.3 2137.74,2051.32C2145.43,2048.33 2151.15,2044.24 2154.9,2039.04C2158.65,2033.84 2160.53,2028.17 2160.53,2022.02C2160.53,2015.78 2158.72,2010.33 2155.11,2005.68C2151.49,2001.02 2145.52,1997.11 2137.2,1993.94C2131.87,1991.87 2120.07,1988.63 2101.8,1984.25C2083.54,1979.86 2070.74,1975.73 2063.42,1971.84C2053.92,1966.86 2046.85,1960.69 2042.19,1953.32C2037.53,1945.95 2035.21,1937.7 2035.21,1928.57C2035.21,1918.53 2038.05,1909.15 2043.75,1900.43C2049.45,1891.7 2057.77,1885.08 2068.71,1880.56C2079.65,1876.03 2091.81,1873.77 2105.19,1873.77C2119.93,1873.77 2132.93,1876.15 2144.19,1880.89C2155.44,1885.64 2164.1,1892.63 2170.16,1901.85C2176.22,1911.07 2179.47,1921.52 2179.93,1933.18L2154.7,1935.08C2153.34,1922.51 2148.75,1913.02 2140.93,1906.6C2133.11,1900.18 2121.56,1896.97 2106.28,1896.97C2090.36,1896.97 2078.77,1899.88 2071.49,1905.72C2064.21,1911.55 2060.57,1918.58 2060.57,1926.81C2060.57,1933.95 2063.15,1939.83 2068.3,1944.44C2073.36,1949.05 2086.59,1953.78 2107.97,1958.61C2129.36,1963.45 2144.03,1967.68 2151.99,1971.3C2163.56,1976.63 2172.11,1983.39 2177.62,1991.57C2183.14,1999.76 2185.89,2009.18 2185.89,2019.85C2185.89,2030.43 2182.87,2040.4 2176.81,2049.76C2170.75,2059.12 2162.05,2066.4 2150.7,2071.6C2139.35,2076.8 2126.58,2079.39 2112.38,2079.39C2094.39,2079.39 2079.31,2076.77 2067.15,2071.53C2054.99,2066.28 2045.44,2058.39 2038.53,2047.86C2031.61,2037.33 2027.97,2025.41 2027.61,2012.12Z" style="fill:rgb(167,164,164);fill-rule:nonzero;"/>
        <path d="M2299.55,2076.01L2299.55,1877.17L2443.32,1877.17L2443.32,1900.63L2325.86,1900.63L2325.86,1961.54L2435.86,1961.54L2435.86,1984.86L2325.86,1984.86L2325.86,2052.55L2447.93,2052.55L2447.93,2076.01L2299.55,2076.01Z" style="fill:rgb(167,164,164);fill-rule:nonzero;"/>
        <path d="M2534.88,2076.01L2534.88,1900.63L2469.37,1900.63L2469.37,1877.17L2626.97,1877.17L2626.97,1900.63L2561.19,1900.63L2561.19,2076.01L2534.88,2076.01Z" style="fill:rgb(167,164,164);fill-rule:nonzero;"/>
        <rect x="2730.6" y="1877.17" width="26.313" height="198.839" style="fill:rgb(167,164,164);"/>
        <path d="M2803.03,2076.01L2803.03,1877.17L2830.02,1877.17L2934.46,2033.29L2934.46,1877.17L2959.69,1877.17L2959.69,2076.01L2932.7,2076.01L2828.26,1919.76L2828.26,2076.01L2803.03,2076.01Z" style="fill:rgb(167,164,164);fill-rule:nonzero;"/>
        <path d="M3005.26,2076.01L3005.26,1877.17L3139.4,1877.17L3139.4,1900.63L3031.57,1900.63L3031.57,1962.21L3124.89,1962.21L3124.89,1985.68L3031.57,1985.68L3031.57,2076.01L3005.26,2076.01Z" style="fill:rgb(167,164,164);fill-rule:nonzero;"/>
        <path d="M3165.58,1979.16C3165.58,1946.16 3174.44,1920.32 3192.16,1901.65C3209.89,1882.97 3232.76,1873.64 3260.8,1873.64C3279.15,1873.64 3295.7,1878.02 3310.44,1886.79C3325.18,1895.57 3336.41,1907.79 3344.14,1923.48C3351.87,1939.17 3355.74,1956.96 3355.74,1976.86C3355.74,1997.02 3351.67,2015.06 3343.53,2030.97C3335.39,2046.89 3323.87,2058.93 3308.95,2067.12C3294.03,2075.3 3277.93,2079.39 3260.66,2079.39C3241.94,2079.39 3225.21,2074.87 3210.47,2065.83C3195.74,2056.79 3184.57,2044.44 3176.97,2028.8C3169.38,2013.16 3165.58,1996.61 3165.58,1979.16ZM3192.71,1979.57C3192.71,2003.53 3199.15,2022.4 3212.03,2036.19C3224.92,2049.98 3241.08,2056.88 3260.52,2056.88C3280.33,2056.88 3296.62,2049.92 3309.42,2035.99C3322.22,2022.07 3328.61,2002.31 3328.61,1976.72C3328.61,1960.53 3325.88,1946.4 3320.41,1934.33C3314.94,1922.26 3306.93,1912.9 3296.4,1906.26C3285.87,1899.61 3274.04,1896.29 3260.93,1896.29C3242.3,1896.29 3226.28,1902.68 3212.85,1915.48C3199.42,1928.28 3192.71,1949.64 3192.71,1979.57Z" style="fill:rgb(167,164,164);fill-rule:nonzero;"/>
        <path d="M3482.69,1998.02L3482.69,1974.69L3566.92,1974.56L3566.92,2048.34C3553.99,2058.65 3540.65,2066.4 3526.91,2071.6C3513.16,2076.8 3499.06,2079.4 3484.59,2079.4C3465.06,2079.4 3447.31,2075.22 3431.35,2066.85C3415.39,2058.49 3403.34,2046.4 3395.21,2030.57C3387.07,2014.75 3383,1997.07 3383,1977.54C3383,1958.19 3387.05,1940.13 3395.14,1923.35C3403.23,1906.58 3414.87,1894.12 3430.06,1885.99C3445.26,1877.85 3462.75,1873.78 3482.55,1873.78C3496.93,1873.78 3509.93,1876.11 3521.55,1880.77C3533.17,1885.42 3542.28,1891.91 3548.88,1900.23C3555.48,1908.55 3560.5,1919.4 3563.93,1932.78L3540.2,1939.29C3537.22,1929.16 3533.51,1921.21 3529.08,1915.42C3524.65,1909.63 3518.32,1905 3510.09,1901.52C3501.86,1898.04 3492.73,1896.3 3482.69,1896.3C3470.66,1896.3 3460.26,1898.13 3451.49,1901.79C3442.72,1905.45 3435.65,1910.27 3430.27,1916.23C3424.89,1922.2 3420.7,1928.76 3417.72,1935.9C3412.66,1948.2 3410.13,1961.54 3410.13,1975.91C3410.13,1993.63 3413.18,2008.46 3419.28,2020.4C3425.39,2032.34 3434.27,2041.2 3445.93,2046.98C3457.6,2052.77 3469.99,2055.66 3483.1,2055.66C3494.49,2055.66 3505.61,2053.47 3516.46,2049.09C3527.31,2044.7 3535.54,2040.02 3541.15,2035.05L3541.15,1998.02L3482.69,1998.02Z" style="fill:rgb(167,164,164);fill-rule:nonzero;"/>
        <path d="M3606.25,2076.01L3606.25,1877.17L3750.02,1877.17L3750.02,1900.63L3632.56,1900.63L3632.56,1961.54L3742.56,1961.54L3742.56,1984.86L3632.56,1984.86L3632.56,2052.55L3754.63,2052.55L3754.63,2076.01L3606.25,2076.01ZM3660.5,1864.96L3678.54,1826.99L3710.55,1826.99L3680.71,1864.96L3660.5,1864.96Z" style="fill:rgb(167,164,164);fill-rule:nonzero;"/>
        <path d="M3791.39,2076.01L3791.39,1877.17L3879.55,1877.17C3897.28,1877.17 3910.75,1878.96 3919.97,1882.53C3929.19,1886.1 3936.56,1892.41 3942.08,1901.45C3947.6,1910.49 3950.35,1920.48 3950.35,1931.42C3950.35,1945.53 3945.79,1957.42 3936.65,1967.1C3927.52,1976.77 3913.41,1982.92 3894.34,1985.54C3901.3,1988.89 3906.59,1992.19 3910.2,1995.44C3917.89,2002.5 3925.17,2011.31 3932.04,2021.89L3966.63,2076.01L3933.53,2076.01L3907.22,2034.64C3899.53,2022.71 3893.21,2013.57 3888.23,2007.24C3883.26,2000.91 3878.81,1996.48 3874.87,1993.95C3870.94,1991.42 3866.94,1989.66 3862.87,1988.66C3859.89,1988.03 3855,1987.71 3848.22,1987.71L3817.7,1987.71L3817.7,2076.01L3791.39,2076.01ZM3817.7,1964.93L3874.26,1964.93C3886.29,1964.93 3895.69,1963.68 3902.47,1961.2C3909.26,1958.71 3914.41,1954.73 3917.94,1949.26C3921.46,1943.79 3923.23,1937.84 3923.23,1931.42C3923.23,1922.02 3919.81,1914.29 3912.99,1908.23C3906.16,1902.17 3895.38,1899.14 3880.64,1899.14L3817.7,1899.14L3817.7,1964.93Z" style="fill:rgb(167,164,164);fill-rule:nonzero;"/>
        <path d="M3969.75,2076.01L4046.11,1877.17L4074.46,1877.17L4155.84,2076.01L4125.86,2076.01L4102.67,2015.79L4019.53,2015.79L3997.69,2076.01L3969.75,2076.01ZM4027.12,1994.36L4094.53,1994.36L4073.78,1939.29C4067.45,1922.56 4062.75,1908.82 4059.68,1898.06C4057.14,1910.81 4053.57,1923.47 4048.96,1936.04L4027.12,1994.36Z" style="fill:rgb(167,164,164);fill-rule:nonzero;"/>
        <path d="M4176.59,2076.01L4176.59,1877.17L4203.58,1877.17L4308.02,2033.29L4308.02,1877.17L4333.25,1877.17L4333.25,2076.01L4306.26,2076.01L4201.82,1919.76L4201.82,2076.01L4176.59,2076.01Z" style="fill:rgb(167,164,164);fill-rule:nonzero;"/>
        <path d="M4519.34,2006.29L4545.65,2012.94C4540.14,2034.55 4530.21,2051.03 4515.88,2062.38C4501.55,2073.72 4484.03,2079.4 4463.32,2079.4C4441.89,2079.4 4424.46,2075.03 4411.04,2066.31C4397.61,2057.58 4387.39,2044.95 4380.38,2028.4C4373.38,2011.85 4369.87,1994.08 4369.87,1975.09C4369.87,1954.39 4373.83,1936.33 4381.74,1920.91C4389.65,1905.49 4400.91,1893.78 4415.51,1885.78C4430.12,1877.78 4446.19,1873.78 4463.73,1873.78C4483.62,1873.78 4500.35,1878.84 4513.91,1888.97C4527.48,1899.09 4536.93,1913.34 4542.26,1931.69L4516.36,1937.8C4511.74,1923.33 4505.05,1912.79 4496.28,1906.19C4487.51,1899.59 4476.48,1896.29 4463.19,1896.29C4447.91,1896.29 4435.13,1899.95 4424.87,1907.28C4414.61,1914.6 4407.4,1924.43 4403.24,1936.78C4399.08,1949.12 4397,1961.85 4397,1974.96C4397,1991.87 4399.46,2006.63 4404.39,2019.24C4409.32,2031.86 4416.98,2041.28 4427.38,2047.52C4437.78,2053.76 4449.04,2056.88 4461.15,2056.88C4475.89,2056.88 4488.37,2052.63 4498.59,2044.13C4508.81,2035.63 4515.72,2023.02 4519.34,2006.29Z" style="fill:rgb(167,164,164);fill-rule:nonzero;"/>
        <path d="M4578.61,2076.01L4578.61,1877.17L4722.38,1877.17L4722.38,1900.63L4604.92,1900.63L4604.92,1961.54L4714.92,1961.54L4714.92,1984.86L4604.92,1984.86L4604.92,2052.55L4726.99,2052.55L4726.99,2076.01L4578.61,2076.01Z" style="fill:rgb(167,164,164);fill-rule:nonzero;"/>
    </g>
    <defs>
        <linearGradient id="_Linear1" x1="0" y1="0" x2="1" y2="0" gradientUnits="userSpaceOnUse" gradientTransform="matrix(1.21528,0.694444,-0.694444,1.21528,-0.0117778,-0.631111)"><stop offset="0" style="stop-color:rgb(255,86,100);stop-opacity:1"/><stop offset="1" style="stop-color:rgb(15,94,244);stop-opacity:1"/></linearGradient>
        <linearGradient id="_Linear2" x1="0" y1="0" x2="1" y2="0" gradientUnits="userSpaceOnUse" gradientTransform="matrix(1.21528,0.694444,-0.694444,1.21528,-0.837778,-0.631111)"><stop offset="0" style="stop-color:rgb(255,86,100);stop-opacity:1"/><stop offset="1" style="stop-color:rgb(15,94,244);stop-opacity:1"/></linearGradient>
    </defs>
</svg>
